HIERARCHY
ROOT Hips
{
	OFFSET 0.000000 103.266502 0.000000
	CHANNELS 6 Xposition Yposition Zposition Xrotation Yrotation Zrotation 
	JOINT Spine
	{
		OFFSET -0.002400 12.777504 0.315300
		CHANNELS 3 Xrotation Yrotation Zrotation
		JOINT Spine1
		{
			OFFSET -0.002067 5.816869 0.032633
			CHANNELS 3 Xrotation Yrotation Zrotation
			JOINT Spine1_split
			{
				OFFSET -0.002067 5.816869 0.032633
				CHANNELS 3 Xrotation Yrotation Zrotation
				JOINT Spine2
				{
					OFFSET -0.002067 5.816869 0.032633
					CHANNELS 3 Xrotation Yrotation Zrotation
					JOINT Neck
					{
						OFFSET -0.003700 21.199493 -0.826900
						CHANNELS 3 Xrotation Yrotation Zrotation
						JOINT Head
						{
							OFFSET 0.000000 20.442200 4.834800
							CHANNELS 3 Xrotation Yrotation Zrotation
							JOINT HeadTop_End
							{
								OFFSET 0.000000 34.668396 4.968400
								CHANNELS 3 Xrotation Yrotation Zrotation
								End Site
								{
									OFFSET 0.000000 0.000000 0.000000
								}
							}
						}
					}
					JOINT LeftShoulder
					{
						OFFSET 3.288150 8.794197 -1.372250
						CHANNELS 3 Xrotation Yrotation Zrotation
						JOINT LeftShoulder_split
						{
							OFFSET 3.288150 8.794197 -1.372250
							CHANNELS 3 Xrotation Yrotation Zrotation
							JOINT LeftArm
							{
								OFFSET 11.953299 -2.279007 -0.146200
								CHANNELS 3 Xrotation Yrotation Zrotation
								JOINT LeftForeArm
								{
									OFFSET 18.448900 0.000000 0.000000
									CHANNELS 3 Xrotation Yrotation Zrotation
									JOINT LeftHand
									{
										OFFSET 29.527798 0.000000 0.000000
										CHANNELS 3 Xrotation Yrotation Zrotation
										JOINT LeftHandThumb1
										{
											OFFSET 10.739754 -2.369614 9.225399
											CHANNELS 3 Xrotation Yrotation Zrotation
											JOINT LeftHandThumb2
											{
												OFFSET 4.926170 -2.844131 2.844125
												CHANNELS 3 Xrotation Yrotation Zrotation
												JOINT LeftHandThumb3
												{
													OFFSET 4.614891 -2.664413 2.664409
													CHANNELS 3 Xrotation Yrotation Zrotation
													JOINT LeftHandThumb4
													{
														OFFSET 4.432465 -2.559082 2.559083
														CHANNELS 3 Xrotation Yrotation Zrotation
														End Site
														{
															OFFSET 0.000000 0.000000 0.000000
														}
													}
												}
											}
										}
										JOINT LeftHandIndex1
										{
											OFFSET 26.467674 0.187653 6.405298
											CHANNELS 3 Xrotation Yrotation Zrotation
											JOINT LeftHandIndex2
											{
												OFFSET 8.792900 0.000000 0.000000
												CHANNELS 3 Xrotation Yrotation Zrotation
												JOINT LeftHandIndex3
												{
													OFFSET 10.075203 0.000000 0.000000
													CHANNELS 3 Xrotation Yrotation Zrotation
													End Site
													{
														OFFSET 0.000000 0.000000 0.000000
													}
												}
											}
										}
										JOINT LeftHandMiddle1
										{
											OFFSET 25.764404 0.000000 0.000000
											CHANNELS 3 Xrotation Yrotation Zrotation
											JOINT LeftHandMiddle2
											{
												OFFSET 9.393974 0.000000 0.000000
												CHANNELS 3 Xrotation Yrotation Zrotation
												JOINT LeftHandMiddle3
												{
													OFFSET 10.771950 0.000000 0.000000
													CHANNELS 3 Xrotation Yrotation Zrotation
													End Site
													{
														OFFSET 0.000000 0.000000 0.000000
													}
												}
											}
										}
										JOINT LeftHandRing1
										{
											OFFSET 24.660927 0.144547 -6.225808
											CHANNELS 3 Xrotation Yrotation Zrotation
											JOINT LeftHandRing2
											{
												OFFSET 9.393799 0.000000 0.000000
												CHANNELS 3 Xrotation Yrotation Zrotation
												JOINT LeftHandRing3
												{
													OFFSET 9.928497 0.000000 0.000000
													CHANNELS 3 Xrotation Yrotation Zrotation
													End Site
													{
														OFFSET 0.000000 0.000000 0.000000
													}
												}
											}
										}
										JOINT LeftHandPinky1
										{
											OFFSET 23.655350 0.125290 -12.815412
											CHANNELS 3 Xrotation Yrotation Zrotation
											JOINT LeftHandPinky2
											{
												OFFSET 8.425102 0.000000 0.000000
												CHANNELS 3 Xrotation Yrotation Zrotation
												JOINT LeftHandPinky3
												{
													OFFSET 8.147003 0.000000 0.000000
													CHANNELS 3 Xrotation Yrotation Zrotation
													End Site
													{
														OFFSET 0.000000 0.000000 0.000000
													}
												}
											}
										}
									}
								}
							}
						}
					}
					JOINT RightShoulder
					{
						OFFSET -3.249400 8.794197 -1.372250
						CHANNELS 3 Xrotation Yrotation Zrotation
						JOINT RightShoulder_split
						{
							OFFSET -3.249400 8.794197 -1.372250
							CHANNELS 3 Xrotation Yrotation Zrotation
							JOINT RightArm
							{
								OFFSET -11.953299 -2.279007 -0.146200
								CHANNELS 3 Xrotation Yrotation Zrotation
								JOINT RightForeArm
								{
									OFFSET -18.448900 0.000000 0.000000
									CHANNELS 3 Xrotation Yrotation Zrotation
									JOINT RightHand
									{
										OFFSET -29.527802 0.000000 0.000000
										CHANNELS 3 Xrotation Yrotation Zrotation
										JOINT RightHandThumb1
										{
											OFFSET -10.739754 -2.369614 9.225399
											CHANNELS 3 Xrotation Yrotation Zrotation
											JOINT RightHandThumb2
											{
												OFFSET -4.926170 -2.844131 2.844125
												CHANNELS 3 Xrotation Yrotation Zrotation
												JOINT RightHandThumb3
												{
													OFFSET -4.614891 -2.664413 2.664409
													CHANNELS 3 Xrotation Yrotation Zrotation
													JOINT RightHandThumb4
													{
														OFFSET -4.432465 -2.559082 2.559083
														CHANNELS 3 Xrotation Yrotation Zrotation
														End Site
														{
															OFFSET 0.000000 0.000000 0.000000
														}
													}
												}
											}
										}
										JOINT RightHandIndex1
										{
											OFFSET -26.467674 0.187653 6.405298
											CHANNELS 3 Xrotation Yrotation Zrotation
											JOINT RightHandIndex2
											{
												OFFSET -8.792900 0.000000 0.000000
												CHANNELS 3 Xrotation Yrotation Zrotation
												JOINT RightHandIndex3
												{
													OFFSET -10.075203 0.000000 0.000000
													CHANNELS 3 Xrotation Yrotation Zrotation
													End Site
													{
														OFFSET 0.000000 0.000000 0.000000
													}
												}
											}
										}
										JOINT RightHandMiddle1
										{
											OFFSET -25.764404 0.000000 0.000000
											CHANNELS 3 Xrotation Yrotation Zrotation
											JOINT RightHandMiddle2
											{
												OFFSET -9.393974 0.000000 0.000000
												CHANNELS 3 Xrotation Yrotation Zrotation
												JOINT RightHandMiddle3
												{
													OFFSET -10.771950 0.000000 0.000000
													CHANNELS 3 Xrotation Yrotation Zrotation
													End Site
													{
														OFFSET 0.000000 0.000000 0.000000
													}
												}
											}
										}
										JOINT RightHandRing1
										{
											OFFSET -24.660927 0.144547 -6.225808
											CHANNELS 3 Xrotation Yrotation Zrotation
											JOINT RightHandRing2
											{
												OFFSET -9.393799 0.000000 0.000000
												CHANNELS 3 Xrotation Yrotation Zrotation
												JOINT RightHandRing3
												{
													OFFSET -9.928497 0.000000 0.000000
													CHANNELS 3 Xrotation Yrotation Zrotation
													End Site
													{
														OFFSET 0.000000 0.000000 0.000000
													}
												}
											}
										}
										JOINT RightHandPinky1
										{
											OFFSET -23.655350 0.125290 -12.815412
											CHANNELS 3 Xrotation Yrotation Zrotation
											JOINT RightHandPinky2
											{
												OFFSET -8.425102 0.000000 0.000000
												CHANNELS 3 Xrotation Yrotation Zrotation
												JOINT RightHandPinky3
												{
													OFFSET -8.147003 0.000000 0.000000
													CHANNELS 3 Xrotation Yrotation Zrotation
													End Site
													{
														OFFSET 0.000000 0.000000 0.000000
													}
												}
											}
										}
									}
								}
							}
						}
					}
				}
			}
		}
	}
	JOINT LeftUpLeg
	{
		OFFSET 11.394100 -6.187798 -0.413800
		CHANNELS 3 Xrotation Yrotation Zrotation
		JOINT LeftLeg
		{
			OFFSET 0.430247 -32.302673 3.732800
			CHANNELS 3 Xrotation Yrotation Zrotation
			JOINT LeftFoot
			{
				OFFSET -0.430247 -48.264931 -6.423300
				CHANNELS 3 Xrotation Yrotation Zrotation
				JOINT LeftToeBase
				{
					OFFSET 4.230900 -16.068199 23.438400
					CHANNELS 3 Xrotation Yrotation Zrotation
					JOINT LeftToe_End
					{
						OFFSET 4.510700 0.695400 19.974600
						CHANNELS 3 Xrotation Yrotation Zrotation
						End Site
						{
							OFFSET 0.000000 0.000000 0.000000
						}
					}
				}
			}
		}
	}
	JOINT RightUpLeg
	{
		OFFSET -11.333700 -6.187798 -0.413800
		CHANNELS 3 Xrotation Yrotation Zrotation
		JOINT RightLeg
		{
			OFFSET -0.430392 -32.302628 3.733000
			CHANNELS 3 Xrotation Yrotation Zrotation
			JOINT RightFoot
			{
				OFFSET 0.430392 -48.264973 -6.423500
				CHANNELS 3 Xrotation Yrotation Zrotation
				JOINT RightToeBase
				{
					OFFSET -4.230900 -16.068199 23.438400
					CHANNELS 3 Xrotation Yrotation Zrotation
					JOINT RightToe_End
					{
						OFFSET -4.510700 0.695400 19.974600
						CHANNELS 3 Xrotation Yrotation Zrotation
						End Site
						{
							OFFSET 0.000000 0.000000 0.000000
						}
					}
				}
			}
		}
	}
}
MOTION
Frames: 5
Frame Time: 0.016667
4.816528 86.962776 -4.300828 3.718271 -55.554471 3.511580 10.424989 12.153671 -4.024630 3.762005 4.020625 -2.477471 0.000000 0.000000 0.000000 3.818220 3.984995 -2.462740 0.516760 1.074221 7.089725 -7.298613 30.311229 -5.053251 0.000000 -0.000000 0.000000 0.201637 -6.892844 -14.624147 0.000000 0.000000 0.000000 -24.181342 -39.117702 -26.205450 -2.022160 -73.632841 -1.555848 -5.774918 23.551645 40.520541 40.109897 -15.297151 -0.360494 5.639913 28.097778 11.338769 1.088562 40.896311 22.734006 -0.000001 -0.000002 0.000000 6.882264 2.840027 -61.140500 8.247973 7.640052 -89.897857 0.000003 -0.000002 0.000000 -2.345532 4.688874 -62.655217 8.754160 9.897070 -87.051239 -0.000000 0.000000 -0.000000 -9.042489 10.045626 -60.766178 8.523955 9.508868 -66.892933 0.000002 0.000002 0.000001 -17.946863 14.755020 -51.485911 8.868394 8.667039 -84.812078 -0.000004 -0.000000 -0.000005 3.144282 20.729231 -9.731361 0.000000 0.000000 0.000000 -14.532874 28.739185 7.272878 -179.799307 72.546649 179.534145 -65.149507 13.409689 -51.164500 0.277457 -1.521474 -1.570537 7.169022 -41.689658 -15.773562 -4.517982 11.064504 4.674009 0.000001 -0.000000 0.000001 6.412779 -12.738398 14.389474 9.941765 -7.465207 101.743263 0.000001 -0.000001 0.000001 2.653152 -11.302287 44.730878 9.916064 -9.880686 94.351175 0.000000 0.000002 -0.000003 2.140163 -7.454439 61.764977 9.609219 -8.992451 89.388701 -0.000000 -0.000002 0.000001 -4.886706 -23.798157 68.396094 13.518304 -7.949247 112.864949 -0.000001 0.000000 0.000000 -47.828075 0.549088 23.029829 44.537645 -2.884635 1.463567 0.475609 -7.244273 -17.663530 -1.836434 -0.000612 -0.000031 -0.000000 -0.000003 -0.000000 -43.128721 -18.346001 -38.751963 50.012476 7.279977 -3.690758 -11.071686 -1.981340 20.084501 -0.001651 -0.000355 0.000007 -0.000000 -0.000000 0.000000 
4.891721 87.081238 -4.321164 3.993682 -56.304862 3.668706 11.035946 12.486657 -4.602210 3.882953 4.155491 -2.595619 0.000000 0.000000 0.000000 3.940178 4.114883 -2.582873 0.077779 1.097557 7.089564 -9.455426 30.205897 -4.759082 0.000001 -0.000001 -0.000000 0.273694 -7.175077 -13.814901 0.000000 0.000000 0.000000 -27.151300 -40.609313 -28.235252 -1.969312 -72.750134 -1.517662 -3.652108 23.449909 41.380660 40.109897 -15.297153 -0.360492 5.639913 28.097778 11.338767 1.088563 40.896318 22.734006 -0.000002 -0.000003 0.000002 6.882265 2.840021 -61.140493 8.247972 7.640057 -89.897850 -0.000003 -0.000004 -0.000003 -2.345526 4.688872 -62.655217 8.754154 9.897062 -87.051239 0.000001 -0.000002 -0.000002 -9.042492 10.045622 -60.766178 8.523959 9.508870 -66.892933 -0.000000 -0.000003 -0.000002 -17.946863 14.755017 -51.485915 8.868391 8.667031 -84.812085 -0.000000 -0.000002 -0.000003 2.514161 21.233545 -6.811737 0.000000 0.000000 0.000000 -5.943693 30.749928 2.272446 -179.151887 73.423796 179.050035 -67.159515 12.064820 -48.542636 0.277476 -1.521468 -1.570573 7.169037 -41.689706 -15.773495 -4.517991 11.064506 4.673978 0.000001 0.000001 -0.000000 6.412829 -12.738457 14.389539 9.941777 -7.465130 101.743249 -0.000001 -0.000001 0.000001 2.653157 -11.302306 44.730895 9.916093 -9.880696 94.351188 -0.000002 0.000002 -0.000003 2.140158 -7.454472 61.765005 9.609241 -8.992484 89.388714 -0.000001 -0.000001 0.000003 -4.886726 -23.798157 68.396121 13.518257 -7.949267 112.864976 -0.000000 -0.000000 -0.000000 -47.652430 0.867638 23.469145 44.336103 -3.009358 1.454040 0.467945 -6.830300 -17.708046 -1.836434 -0.000616 -0.000031 -0.000000 0.000002 0.000000 -43.330553 -18.216845 -38.402342 49.649024 6.503511 -3.746757 -10.780816 -0.755660 20.169996 -0.001651 -0.000355 0.000007 0.000000 -0.000000 0.000000 
5.010962 87.263596 -4.338537 4.256260 -57.177604 3.796022 11.621937 12.555172 -5.162935 4.041846 4.210476 -2.712406 0.000000 0.000000 0.000000 4.093325 4.173068 -2.703599 -0.418005 1.150586 7.039632 -11.340496 30.556528 -4.537706 0.000000 0.000000 0.000000 0.377112 -7.436382 -12.890569 0.000000 0.000000 0.000000 -30.060649 -41.102094 -29.619382 -2.081403 -72.317319 -1.635648 -1.913102 23.426605 42.068160 40.109900 -15.297151 -0.360493 5.639912 28.097776 11.338767 1.088564 40.896318 22.734003 0.000005 0.000000 0.000003 6.882265 2.840026 -61.140493 8.247972 7.640052 -89.897857 0.000000 -0.000003 -0.000000 -2.345527 4.688877 -62.655217 8.754160 9.897070 -87.051239 0.000002 -0.000003 -0.000000 -9.042495 10.045625 -60.766178 8.523957 9.508868 -66.892940 0.000000 0.000001 0.000004 -17.946862 14.755015 -51.485911 8.868387 8.667035 -84.812078 -0.000001 -0.000000 -0.000005 2.559576 21.019409 -6.830149 0.000000 0.000000 0.000000 -1.561703 33.072063 0.691372 -178.933731 75.268698 179.032099 -68.145931 10.673616 -45.251748 0.277461 -1.521472 -1.570498 7.168984 -41.689617 -15.773560 -4.517979 11.064499 4.673950 -0.000000 -0.000001 0.000000 6.412855 -12.738421 14.389549 9.941736 -7.465194 101.743263 -0.000002 0.000000 0.000002 2.653176 -11.302294 44.730946 9.916072 -9.880689 94.351140 0.000002 -0.000000 -0.000003 2.140171 -7.454480 61.765032 9.609248 -8.992468 89.388687 0.000002 -0.000002 0.000001 -4.886699 -23.798138 68.396141 13.518293 -7.949272 112.864976 -0.000001 0.000001 -0.000000 -47.339730 1.236926 23.934851 43.991186 -3.097407 1.447472 0.502875 -6.355170 -17.752510 -1.836434 -0.000617 -0.000031 -0.000000 0.000002 0.000000 -43.506085 -18.187269 -37.915435 49.219849 7.882406 -3.649388 -10.367650 -1.522143 19.581372 -0.001651 -0.000355 0.000007 -0.000000 -0.000000 -0.000000 
5.165201 87.430733 -4.354707 4.529655 -58.328859 3.922739 12.180287 12.335913 -5.686864 4.167031 4.169346 -2.813601 0.000000 0.000000 0.000000 4.213589 4.134004 -2.809066 -0.982837 1.275626 6.943003 -12.696570 31.538795 -4.386466 0.000000 -0.000000 0.000000 0.469998 -7.672767 -11.958907 0.000000 0.000000 0.000000 -32.668354 -40.481100 -29.999331 -2.290995 -72.441956 -1.843463 -0.679287 23.671103 42.502959 40.109897 -15.297150 -0.360491 5.639915 28.097781 11.338768 1.088570 40.896318 22.734006 0.000002 0.000000 0.000001 6.882262 2.840023 -61.140493 8.247975 7.640053 -89.897857 -0.000002 0.000001 0.000002 -2.345530 4.688874 -62.655217 8.754158 9.897067 -87.051239 -0.000000 0.000000 -0.000001 -9.042490 10.045625 -60.766178 8.523957 9.508866 -66.892933 -0.000001 -0.000001 -0.000001 -17.946860 14.755017 -51.485915 8.868388 8.667033 -84.812085 -0.000002 -0.000001 -0.000000 1.947802 20.533130 -7.026576 0.000000 0.000000 0.000000 -2.633539 35.447500 2.378814 -179.601368 76.885431 179.927168 -68.793290 7.356050 -41.081156 0.277481 -1.521483 -1.570582 7.169029 -41.689682 -15.773533 -4.517986 11.064512 4.674000 0.000000 0.000001 -0.000000 6.412777 -12.738415 14.389508 9.941772 -7.465192 101.743229 -0.000000 0.000001 -0.000000 2.653157 -11.302307 44.730919 9.916119 -9.880690 94.351181 -0.000001 0.000001 -0.000000 2.140153 -7.454474 61.765005 9.609250 -8.992443 89.388714 -0.000002 -0.000001 0.000002 -4.886745 -23.798119 68.396094 13.518269 -7.949278 112.864935 0.000001 0.000002 0.000000 -47.022864 1.715122 24.563790 43.740286 -3.302389 1.431996 0.485334 -5.681046 -17.801720 -1.836434 -0.000618 -0.000031 -0.000000 0.000000 0.000000 -43.703887 -17.976546 -37.307480 48.736869 8.171924 -3.630182 -9.887116 -1.139223 19.298838 -0.001651 -0.000355 0.000007 -0.000000 -0.000000 -0.000000 
5.302860 87.676292 -4.359660 4.822898 -59.764189 4.066625 12.480129 11.780580 -6.153821 4.169942 4.020443 -2.886274 0.000000 0.000000 0.000000 4.209961 3.986339 -2.886166 -1.613024 1.478100 6.800793 -13.107751 33.230568 -4.144158 -0.000000 0.000000 0.000000 0.558118 -7.867310 -10.804182 0.000000 0.000000 0.000000 -34.479755 -38.722753 -29.267890 -2.652742 -73.369052 -2.192542 -0.146512 24.566922 42.877127 40.109903 -15.297150 -0.360493 5.639913 28.097776 11.338771 1.088567 40.896314 22.734008 0.000002 -0.000003 -0.000000 6.882269 2.840026 -61.140493 8.247973 7.640052 -89.897857 0.000002 0.000001 -0.000002 -2.345531 4.688876 -62.655224 8.754160 9.897066 -87.051239 0.000004 0.000001 0.000002 -9.042487 10.045627 -60.766178 8.523957 9.508869 -66.892933 -0.000000 0.000001 0.000001 -17.946865 14.755017 -51.485915 8.868392 8.667036 -84.812071 -0.000003 -0.000002 -0.000005 1.513802 19.882633 -7.346662 0.000000 0.000000 0.000000 -3.277076 37.679203 0.125852 -178.544888 79.415060 179.244217 -65.939268 11.583607 -38.241956 0.277502 -1.521482 -1.570561 7.169034 -41.689658 -15.773571 -4.518002 11.064502 4.674006 -0.000002 0.000001 0.000000 6.412861 -12.738421 14.389506 9.941741 -7.465192 101.743277 -0.000002 0.000000 0.000000 2.653204 -11.302302 44.730940 9.916054 -9.880665 94.351175 -0.000001 -0.000001 -0.000003 2.140152 -7.454480 61.765011 9.609257 -8.992442 89.388701 -0.000001 0.000001 0.000000 -4.886637 -23.798122 68.396162 13.518248 -7.949254 112.864935 0.000000 -0.000000 0.000000 -46.514558 2.422061 25.357371 43.325061 -3.619188 1.407773 0.454398 -4.833773 -17.857803 -1.836434 -0.000615 -0.000031 0.000000 0.000001 0.000000 -43.765427 -17.719681 -36.480703 48.027571 8.502380 -3.608670 -9.300410 -0.714816 18.979221 -0.001651 -0.000355 0.000007 -0.000000 -0.000000 0.000000 
